<svg width="106" height="100" viewBox="0 0 106 100" fill="none" xmlns="http://www.w3.org/2000/svg">
<path d="M23.1164 16.918H23.1114C22.6676 17.0322 22.3185 17.1762 22.0542 17.3549C21.6403 17.6329 21.376 17.9109 21.2513 18.174C21.1316 18.4321 21.0668 18.6257 21.0668 18.7598V20.7952C21.0668 20.9044 21.1515 21.0285 21.3161 21.1625C21.4956 21.3065 21.7001 21.4306 21.9195 21.5448C22.2836 21.7334 22.6826 21.9171 23.1264 22.0909L23.1164 16.918ZM27.2706 32.9181C27.7194 32.8039 28.0685 32.655 28.3278 32.4813C28.7367 32.1983 29.006 31.9253 29.1307 31.6622C29.2604 31.3842 29.3302 31.1757 29.3302 31.0466V29.041C29.3302 28.9318 29.2404 28.8127 29.0659 28.6737C28.8814 28.5347 28.6869 28.4007 28.4774 28.2914C28.1184 28.1028 27.7194 27.9241 27.2805 27.7553L27.2706 32.9181ZM25.196 9.03999C26.343 9.03999 27.2706 9.95839 27.2706 11.1002L27.2756 12.7284C28.4924 12.922 29.4798 13.2497 30.2378 13.7014C31.1754 14.2624 31.8486 14.8481 32.2825 15.4538C32.6466 15.9601 32.9208 16.4367 33.0904 16.9083C33.255 17.3749 33.3647 17.7671 33.4046 18.0898C33.4544 18.4273 33.4744 18.6408 33.4744 18.7401V19.5592C33.4744 20.1301 33.2749 20.6116 32.871 21.0137C32.457 21.4257 31.9633 21.6293 31.3949 21.6293C30.8264 21.6293 30.3376 21.4307 29.9337 21.0286C29.5298 20.6215 29.3303 20.1301 29.3303 19.5592V18.7947C29.3303 18.6607 29.2755 18.4572 29.1458 18.1891C29.0161 17.9111 28.7468 17.6331 28.3429 17.3551C28.0786 17.1764 27.7245 17.0324 27.2757 16.9182V23.3866C28.4177 23.749 29.4849 24.1561 30.4574 24.6674C31.2802 25.1043 31.8936 25.6106 32.3325 26.1219C32.7764 26.6332 33.0856 27.1396 33.2402 27.641C33.3998 28.1523 33.4746 28.6189 33.4746 29.0409V31.0962C33.4746 31.1955 33.4496 31.404 33.4047 31.7266C33.3599 32.0642 33.2551 32.4613 33.0906 32.928C32.921 33.3996 32.6467 33.8762 32.2827 34.3825C31.8488 34.9881 31.1855 35.5789 30.253 36.1349C29.485 36.5916 28.4877 36.9192 27.2659 37.1128L27.2709 38.7361C27.2709 39.8779 26.3433 40.8012 25.2013 40.8012C24.0543 40.8012 23.1267 39.8779 23.1267 38.7361L23.1317 37.1128C21.9149 36.9192 20.9224 36.5916 20.1595 36.1349C19.2219 35.5739 18.5487 34.9881 18.1148 34.3825C17.7557 33.8761 17.4814 33.3946 17.3118 32.928C17.1373 32.4613 17.0276 32.0692 16.9927 31.7465C16.9528 31.4089 16.9229 31.1955 16.9229 31.0962V30.2771C16.9229 29.7111 17.1273 29.2296 17.5263 28.8226C17.9352 28.4155 18.414 28.207 18.9874 28.207C19.5559 28.207 20.0447 28.4056 20.4436 28.8077C20.8575 29.2197 21.067 29.7112 21.067 30.277V31.0763C21.067 31.2103 21.1268 31.4039 21.2515 31.6621C21.3762 31.9252 21.6405 32.2032 22.0544 32.4812C22.3237 32.6599 22.6778 32.8039 23.1266 32.923L23.1316 26.4596C21.9896 26.0922 20.9173 25.6802 19.9399 25.1689C19.1071 24.727 18.4837 24.2306 18.0498 23.7144C17.611 23.2031 17.3117 22.6967 17.1571 22.1953C17.0025 21.684 16.9228 21.2174 16.9228 20.7953V18.7401C16.9228 18.6408 16.9377 18.4323 16.9726 18.1097C17.0125 17.7721 17.1222 17.37 17.2918 16.9083C17.4663 16.4367 17.7556 15.9601 18.1146 15.4538C18.5485 14.8482 19.2118 14.2574 20.1443 13.7014C20.9123 13.2447 21.9047 12.922 23.1215 12.7284L23.1265 11.1002C23.1265 9.96338 24.0491 9.04001 25.1911 9.04001L25.196 9.03999ZM25.3057 0C11.427 0 0.175781 11.1994 0.175781 25.0156C0.175781 38.831 11.4264 50.0362 25.3108 50.0362C31.0558 50.0362 36.347 48.115 40.581 44.8832L40.591 36.0021C40.591 35.605 40.6109 35.2178 40.6508 34.8256C40.8802 32.5917 41.743 30.4818 43.1443 28.7294V28.7244C43.4236 28.3769 43.7178 28.0443 44.032 27.7316L44.1217 27.6422C45.8473 25.9295 48.0564 24.8026 50.4303 24.3906C50.0961 10.8585 38.9751 0.00159012 25.3055 0.00159012L25.3057 0ZM91.912 39.0789C93.822 39.0789 95.353 40.6177 95.353 42.5191V60.7279C95.353 62.6292 93.807 64.1731 91.897 64.1731H58.7982C57.8806 64.1731 56.9978 63.8107 56.3495 63.1653C55.7012 62.52 55.3372 61.6463 55.3372 60.7328V42.5189C55.3372 41.6054 55.7012 40.7267 56.3495 40.0813C56.9978 39.4409 57.8755 39.0786 58.7882 39.0786L91.912 39.0789ZM5.40246 45.5324C2.24066 47.5629 0.176037 50.2832 0.176037 53.7682C0.176037 62.8181 14.0802 66.7347 25.0659 66.7347C30.1726 66.7347 35.9076 65.8859 40.58 64.0738V49.1514C36.1616 51.9265 30.9252 53.5349 25.3098 53.5349C17.575 53.5349 10.5579 50.4868 5.40144 45.5274L5.40246 45.5324ZM58.7927 69.272C60.7027 69.272 62.2536 70.8109 62.2536 72.7122V72.7172C62.2536 74.6136 60.7077 76.1574 58.7976 76.1574C56.8876 76.1574 55.3367 74.6136 55.3367 72.7172V72.7122C55.3367 70.8158 56.8827 69.272 58.7927 69.272ZM75.3447 69.272C77.2547 69.272 78.8056 70.8109 78.8056 72.7122V72.7172C78.8056 74.6136 77.2547 76.1574 75.3447 76.1574C73.4346 76.1574 71.8887 74.6136 71.8887 72.7172V72.7122C71.8887 70.8158 73.4346 69.272 75.3397 69.272H75.3447ZM0.175781 70.3989V70.4039C0.175781 79.4538 14.08 83.3653 25.0657 83.3653C30.1723 83.3653 35.9074 82.5214 40.5797 80.7095V67.1317C35.3933 68.9188 29.5287 69.6088 25.0657 69.6088C19.8842 69.6088 12.8126 68.6805 7.10298 66.1736L7.09799 66.1686C4.36018 64.9672 1.93642 63.3985 0.181007 61.3979L0.175781 70.3989ZM58.7927 81.2012C60.7027 81.2012 62.2536 82.7401 62.2536 84.6414V84.6464C62.2536 86.5477 60.7077 88.0866 58.7976 88.0866C56.8876 88.0866 55.3367 86.5477 55.3367 84.6464V84.6414C55.3367 82.745 56.8827 81.2012 58.7927 81.2012ZM75.3447 81.2012C77.2547 81.2012 78.8056 82.7401 78.8056 84.6414V84.6464C78.8056 86.5477 77.2547 88.0866 75.3447 88.0866C73.4346 88.0866 71.8887 86.5477 71.8887 84.6464V84.6414C71.8887 82.745 73.4346 81.2012 75.3397 81.2012H75.3447ZM91.8864 69.277C93.7965 69.277 95.3523 70.8109 95.3523 72.7122V84.6464C95.3523 86.5477 93.8064 88.0866 91.8964 88.0866C89.9864 88.0866 88.4405 86.5477 88.4405 84.6464V72.7122C88.4405 70.8159 89.9764 69.277 91.8815 69.277H91.8864ZM52.4042 29.1255H52.3992C50.5989 29.1255 48.8735 29.8454 47.6018 31.1112L47.512 31.2006C46.2353 32.4715 45.5172 34.1991 45.5172 36.001V93.1146C45.5172 94.9167 46.2353 96.6491 47.512 97.92L47.6018 98.0093C48.8834 99.2851 50.6189 100 52.4291 100H98.2589C100.069 100 101.805 99.2851 103.086 98.0093L103.176 97.92C104.458 96.6491 105.176 94.9165 105.176 93.1146V36.0048C105.176 34.2027 104.458 32.4753 103.176 31.1995L103.086 31.1101C101.81 29.8392 100.079 29.1194 98.2689 29.1194L52.4042 29.1255ZM0.175781 87.0334C0.175781 96.0883 14.08 100 25.0657 100C30.4267 100 36.4809 99.0716 41.273 97.071L41.278 97.0661C40.8241 95.8101 40.5898 94.4747 40.5898 93.1145L40.5798 83.7667C35.3933 85.5537 29.5287 86.2389 25.0657 86.2389C19.8842 86.2389 12.8127 85.3155 7.10302 82.8036H7.09803C4.36022 81.6022 1.93647 80.0335 0.181052 78.0329L0.175781 87.0334Z" fill="black"/>
</svg>
