<svg width="101" height="100" viewBox="0 0 101 100" fill="none" xmlns="http://www.w3.org/2000/svg">
<path d="M99.2408 47.4748L92.0979 40.332C90.7028 38.9369 88.4428 38.9369 87.0477 40.332C85.6526 41.7271 85.6526 43.9871 87.0477 45.3822L88.094 46.4285H75.2871V53.5714H88.094L87.0477 54.6177C85.6526 56.0128 85.6526 58.2728 87.0477 59.6679C87.7453 60.3654 88.659 60.7142 89.5728 60.7142C90.4866 60.7142 91.4004 60.3654 92.0979 59.6679L99.2408 52.525C100.636 51.13 100.636 48.8699 99.2408 47.4748Z" fill="black"/>
<path d="M68.1443 0H3.85854C1.88623 0 0.287109 1.59738 0.287109 3.57143V96.4286C0.287109 98.4026 1.88623 100 3.85854 100H68.1443C70.1166 100 71.7157 98.4026 71.7157 96.4286V3.57143C71.7157 1.59738 70.1166 0 68.1443 0ZM18.1443 48.2143C24.0525 48.2143 28.8585 53.0204 28.8585 58.9286C28.8585 64.2253 24.9867 68.6061 19.93 69.4624V73.2143C19.93 74.2013 19.1313 75 18.1443 75C17.1572 75 16.3585 74.2013 16.3585 73.2143V69.4624C11.3018 68.6061 7.42997 64.2253 7.42997 58.9286C7.42997 57.9415 8.22866 57.1429 9.21568 57.1429C10.2027 57.1429 11.0014 57.9415 11.0014 58.9286C11.0014 62.868 14.2049 66.0714 18.1443 66.0714C22.0836 66.0714 25.2871 62.868 25.2871 58.9286C25.2871 54.9892 22.0836 51.7857 18.1443 51.7857C12.236 51.7857 7.42997 46.9796 7.42997 41.0714C7.42997 35.7747 11.3018 31.3939 16.3585 30.5376V26.7857C16.3585 25.7987 17.1572 25 18.1443 25C19.1313 25 19.93 25.7987 19.93 26.7857V30.5376C24.9867 31.3939 28.8585 35.7747 28.8585 41.0714C28.8585 42.0585 28.0599 42.8571 27.0728 42.8571C26.0858 42.8571 25.2871 42.0585 25.2871 41.0714C25.2871 37.132 22.0836 33.9286 18.1443 33.9286C14.2049 33.9286 11.0014 37.132 11.0014 41.0714C11.0014 45.0108 14.2049 48.2143 18.1443 48.2143ZM59.2157 78.5714H34.2157C33.2287 78.5714 32.43 77.7727 32.43 76.7857C32.43 75.7987 33.2287 75 34.2157 75H59.2157C60.2027 75 61.0014 75.7987 61.0014 76.7857C61.0014 77.7727 60.2027 78.5714 59.2157 78.5714ZM59.2157 67.8571H34.2157C33.2287 67.8571 32.43 67.0585 32.43 66.0714C32.43 65.0844 33.2287 64.2857 34.2157 64.2857H59.2157C60.2027 64.2857 61.0014 65.0844 61.0014 66.0714C61.0014 67.0585 60.2027 67.8571 59.2157 67.8571ZM59.2157 57.1429H34.2157C33.2287 57.1429 32.43 56.3442 32.43 55.3571C32.43 54.3701 33.2287 53.5714 34.2157 53.5714H59.2157C60.2027 53.5714 61.0014 54.3701 61.0014 55.3571C61.0014 56.3442 60.2027 57.1429 59.2157 57.1429ZM59.2157 46.4286H34.2157C33.2287 46.4286 32.43 45.6299 32.43 44.6429C32.43 43.6558 33.2287 42.8571 34.2157 42.8571H59.2157C60.2027 42.8571 61.0014 43.6558 61.0014 44.6429C61.0014 45.6299 60.2027 46.4286 59.2157 46.4286ZM59.2157 35.7143H34.2157C33.2287 35.7143 32.43 34.9156 32.43 33.9286C32.43 32.9415 33.2287 32.1429 34.2157 32.1429H59.2157C60.2027 32.1429 61.0014 32.9415 61.0014 33.9286C61.0014 34.9156 60.2027 35.7143 59.2157 35.7143ZM59.2157 25H34.2157C33.2287 25 32.43 24.2013 32.43 23.2143C32.43 22.2273 33.2287 21.4286 34.2157 21.4286H59.2157C60.2027 21.4286 61.0014 22.2273 61.0014 23.2143C61.0014 24.2013 60.2027 25 59.2157 25Z" fill="black"/>
</svg>
