<svg width="90" height="100" viewBox="0 0 90 100" fill="none" xmlns="http://www.w3.org/2000/svg">
<path d="M28.0634 22.2222H61.3967C62.8701 22.2222 64.2832 21.6369 65.3251 20.595C66.3669 19.5532 66.9523 18.1401 66.9523 16.6667V11.1111H55.8411C55.8411 8.16426 54.6705 5.33811 52.5868 3.25437C50.503 1.17063 47.6769 0 44.73 0C41.7832 0 38.957 1.17063 36.8733 3.25437C34.7896 5.33811 33.6189 8.16426 33.6189 11.1111H22.5078V16.6667C22.5078 18.1401 23.0931 19.5532 24.135 20.595C25.1769 21.6369 26.5899 22.2222 28.0634 22.2222Z" fill="black"/>
<path d="M75.2852 11.3906V16.6661C75.2809 20.3483 73.8163 23.8786 71.2126 26.4824C68.6088 29.0861 65.0785 30.5508 61.3963 30.555H28.0629C24.3807 30.5508 20.8504 29.0861 18.2466 26.4824C15.6429 23.8786 14.1782 20.3483 14.174 16.6661V11.3906C10.2956 12.0396 6.77254 14.0417 4.22997 17.0415C1.68741 20.0413 0.289802 23.8448 0.285156 27.7772V83.3327C0.285156 87.753 2.0411 91.9922 5.16671 95.1179C8.29232 98.2435 12.5315 99.9994 16.9518 99.9994H72.5074C76.9277 99.9994 81.1669 98.2435 84.2925 95.1179C87.4181 91.9922 89.174 87.753 89.174 83.3327V27.7772C89.1694 23.8448 87.7718 20.0413 85.2292 17.0415C82.6867 14.0417 79.1636 12.0396 75.2852 11.3906ZM72.5074 70.8327C72.5074 71.9378 72.0684 72.9976 71.287 73.779C70.5056 74.5604 69.4458 74.9994 68.3407 74.9994C67.2356 74.9994 66.1758 74.5604 65.3944 73.779C64.613 72.9976 64.174 71.9378 64.174 70.8327V58.4636L46.0534 73.9957C45.2561 74.6785 44.2305 75.0354 43.1816 74.9952C42.1326 74.9549 41.1374 74.5205 40.3948 73.7787L32.2296 65.6136L18.5089 79.3342C17.7266 80.1109 16.6684 80.5458 15.5661 80.5438C14.4638 80.5418 13.4072 80.103 12.6277 79.3235C11.8482 78.5441 11.4095 77.4875 11.4074 76.3852C11.4054 75.2828 11.8404 74.2246 12.617 73.4424L29.2837 56.7757C29.6705 56.3887 30.1297 56.0817 30.6352 55.8722C31.1407 55.6628 31.6824 55.555 32.2296 55.555C32.7768 55.555 33.3185 55.6628 33.824 55.8722C34.3295 56.0817 34.7887 56.3887 35.1755 56.7757L43.5577 65.1579L58.0027 52.7772H46.1185C45.0134 52.7772 43.9536 52.3382 43.1722 51.5568C42.3908 50.7754 41.9518 49.7156 41.9518 48.6105C41.9518 47.5054 42.3908 46.4456 43.1722 45.6642C43.9536 44.8828 45.0134 44.4438 46.1185 44.4438H68.3407C69.4457 44.4441 70.5053 44.8832 71.2867 45.6646C72.068 46.4459 72.5071 47.5055 72.5074 48.6105V70.8327Z" fill="black"/>
</svg>
