<svg width="66" height="54" viewBox="0 0 66 54" fill="none" xmlns="http://www.w3.org/2000/svg">
<path d="M14.71 40.1595L22.93 35.5695V23.5195H14.71V40.1595Z" fill="#808080"/>
<path d="M25.1099 34.16L30.6799 31.03L33.3299 34.16V17.71H25.1099V34.16Z" fill="#808080"/>
<path d="M35.8599 37.0702L37.2399 38.6902L44.0799 34.6002V13.4102H35.8599V37.0702Z" fill="#808080"/>
<path d="M56.8 28.05V7.91C56.8 6.87125 56.5954 5.84267 56.1979 4.88298C55.8004 3.92329 55.2177 3.0513 54.4832 2.31679C53.7487 1.58228 52.8767 0.999634 51.917 0.602119C50.9574 0.204605 49.9288 0 48.89 0H21.2C16.5814 0.00527153 12.1531 1.84028 8.88448 5.10329C5.61585 8.36629 3.77323 12.7915 3.76001 17.41V47.82L0 49.91V53.33L28.58 40.46L35.95 49.87L55.52 37.54L57.52 40.25L65.02 27.15L56.8 28.05ZM36.8 40.67L30.52 32.91L8.84001 45V17.41C8.8453 14.1336 10.1492 10.9928 12.466 8.676C14.7828 6.3592 17.9235 5.05529 21.2 5.05H48.89C49.2642 5.04998 49.6346 5.12416 49.98 5.26826C50.3253 5.41235 50.6386 5.6235 50.9018 5.88947C51.165 6.15545 51.3728 6.47097 51.5133 6.81779C51.6537 7.16462 51.724 7.53585 51.72 7.91V28.61L49.1 28.89L51.41 31.89L36.8 40.67Z" fill="#2563EB"/>
</svg>
