<svg width="101" height="100" viewBox="0 0 101 100" fill="none" xmlns="http://www.w3.org/2000/svg">
<path d="M73.4287 0H26.9178C19.8623 0 14.128 5.73818 14.128 12.7888V52.2102L47.1815 72.0459C48.0842 72.5866 49.122 72.8744 50.1729 72.8744C51.2238 72.8744 52.2617 72.5823 53.1774 72.0372L86.2231 52.2104V12.7935C86.2231 5.7385 80.4845 0.00467757 73.4333 0.00467757L73.4287 0ZM47.8446 32.5587H52.4975C58.2667 32.5587 62.9631 37.2547 62.9631 43.0235C62.9631 48.3954 58.8771 52.782 53.6618 53.3706V59.3006C53.6618 61.2279 52.1007 62.7889 50.1733 62.7889C48.2458 62.7889 46.6847 61.2279 46.6847 59.3006V53.449C43.497 53.3487 40.4925 52.1191 38.1945 49.8954C36.8077 48.5567 36.7729 46.346 38.1116 44.9638C39.4547 43.5815 41.6612 43.5467 43.0436 44.8809C44.1294 45.9361 45.564 46.5116 47.0816 46.5116H52.4976C54.4207 46.5116 55.9861 44.9463 55.9861 43.0234C55.9861 41.1004 54.4207 39.5351 52.4976 39.5351H47.8447C42.0755 39.5351 37.3791 34.8391 37.3791 29.0703C37.3791 23.6984 41.4651 19.3118 46.6804 18.7232V12.7932C46.6804 10.8659 48.2414 9.3049 50.1689 9.3049C52.0964 9.3049 53.6574 10.8659 53.6574 12.7932V18.6448C56.8451 18.7451 59.8496 19.9747 62.1477 22.1984C63.5344 23.5371 63.5692 25.7478 62.2306 27.13C60.8919 28.521 58.681 28.5515 57.2986 27.2129C56.2128 26.1577 54.7781 25.5821 53.2606 25.5821H47.8446C45.9215 25.5821 44.3561 27.1475 44.3561 29.0704C44.3561 30.9934 45.9215 32.5587 47.8446 32.5587ZM100.173 51.9758V87.2068C100.173 94.2618 94.4341 99.9956 87.3829 99.9956L12.9637 100C5.90809 100 0.173828 94.2618 0.173828 87.2112V51.9802L43.5936 78.0334C45.6257 79.2499 47.8976 79.856 50.1738 79.856C52.45 79.856 54.7263 79.2455 56.7541 78.0334L100.174 51.9802L100.173 51.9758Z" fill="black"/>
</svg>
