<svg width="302" height="54" viewBox="0 0 302 54" fill="none" xmlns="http://www.w3.org/2000/svg">
<path d="M14.71 40.1595L22.93 35.5695V23.5195H14.71V40.1595Z" fill="#808080"/>
<path d="M25.1099 34.16L30.6799 31.03L33.3299 34.16V17.71H25.1099V34.16Z" fill="#808080"/>
<path d="M35.8599 37.0702L37.2399 38.6902L44.0799 34.6002V13.4102H35.8599V37.0702Z" fill="#808080"/>
<path d="M56.8 28.05V7.91C56.8 6.87125 56.5954 5.84267 56.1979 4.88298C55.8004 3.92329 55.2177 3.0513 54.4832 2.31679C53.7487 1.58228 52.8767 0.999634 51.917 0.602119C50.9574 0.204605 49.9288 0 48.89 0H21.2C16.5814 0.00527153 12.1531 1.84028 8.88448 5.10329C5.61585 8.36629 3.77323 12.7915 3.76001 17.41V47.82L0 49.91V53.33L28.58 40.46L35.95 49.87L55.52 37.54L57.52 40.25L65.02 27.15L56.8 28.05ZM36.8 40.67L30.52 32.91L8.84001 45V17.41C8.8453 14.1336 10.1492 10.9928 12.466 8.676C14.7828 6.3592 17.9235 5.05529 21.2 5.05H48.89C49.2642 5.04998 49.6346 5.12416 49.98 5.26826C50.3253 5.41235 50.6386 5.6235 50.9018 5.88947C51.165 6.15545 51.3728 6.47097 51.5133 6.81779C51.6537 7.16462 51.724 7.53585 51.72 7.91V28.61L49.1 28.89L51.41 31.89L36.8 40.67Z" fill="#2563EB"/>
<path d="M89.79 36.665H85.5L83.85 31.835H76.26L74.61 36.665H70.38L77.61 16.865H82.56L89.79 36.665ZM77.19 28.775H82.92L80.04 20.135L77.19 28.775ZM95.5805 36.965C94.5805 36.965 93.6805 36.785 92.8805 36.425C92.0805 36.065 91.4405 35.495 90.9605 34.715C90.5005 33.915 90.2705 32.885 90.2705 31.625V21.665H94.3805V30.635C94.3805 31.795 94.6205 32.605 95.1005 33.065C95.5805 33.505 96.2705 33.725 97.1705 33.725C97.5905 33.725 98.0005 33.655 98.4005 33.515C98.8005 33.355 99.1505 33.115 99.4505 32.795C99.7705 32.475 100.02 32.065 100.2 31.565C100.38 31.045 100.47 30.435 100.47 29.735V21.665H104.58V36.665H100.92L100.77 34.055C100.27 35.055 99.5805 35.795 98.7005 36.275C97.8405 36.735 96.8005 36.965 95.5805 36.965ZM112.415 17.075V31.775C112.415 32.495 112.595 33.025 112.955 33.365C113.335 33.685 113.845 33.845 114.485 33.845C114.985 33.845 115.425 33.775 115.805 33.635C116.185 33.475 116.525 33.265 116.825 33.005L117.485 35.735C117.005 36.115 116.405 36.415 115.685 36.635C114.965 36.855 114.205 36.965 113.405 36.965C112.405 36.965 111.515 36.815 110.735 36.515C109.975 36.215 109.375 35.735 108.935 35.075C108.515 34.415 108.305 33.535 108.305 32.435V18.215L112.415 17.075ZM117.215 21.665V24.725H105.545V21.665H117.215ZM118.43 36.665V15.095H122.54V24.215C123.02 23.255 123.68 22.545 124.52 22.085C125.36 21.605 126.31 21.365 127.37 21.365C128.41 21.365 129.33 21.565 130.13 21.965C130.95 22.365 131.59 22.975 132.05 23.795C132.53 24.595 132.77 25.605 132.77 26.825V36.665H128.66V28.025C128.66 26.725 128.41 25.835 127.91 25.355C127.41 24.855 126.77 24.605 125.99 24.605C125.41 24.605 124.85 24.745 124.31 25.025C123.79 25.285 123.36 25.725 123.02 26.345C122.7 26.945 122.54 27.745 122.54 28.745V36.665H118.43ZM142.045 21.365C143.565 21.365 144.895 21.675 146.035 22.295C147.195 22.915 148.095 23.805 148.735 24.965C149.395 26.125 149.725 27.525 149.725 29.165C149.725 30.785 149.395 32.185 148.735 33.365C148.095 34.525 147.195 35.415 146.035 36.035C144.895 36.655 143.565 36.965 142.045 36.965C140.545 36.965 139.215 36.655 138.055 36.035C136.895 35.415 135.985 34.525 135.325 33.365C134.685 32.185 134.365 30.785 134.365 29.165C134.365 27.525 134.685 26.125 135.325 24.965C135.985 23.805 136.895 22.915 138.055 22.295C139.215 21.675 140.545 21.365 142.045 21.365ZM142.045 24.425C141.285 24.425 140.635 24.605 140.095 24.965C139.575 25.305 139.175 25.825 138.895 26.525C138.615 27.225 138.475 28.105 138.475 29.165C138.475 30.225 138.615 31.105 138.895 31.805C139.175 32.505 139.575 33.035 140.095 33.395C140.635 33.735 141.285 33.905 142.045 33.905C142.785 33.905 143.415 33.735 143.935 33.395C144.475 33.035 144.885 32.505 145.165 31.805C145.445 31.105 145.585 30.225 145.585 29.165C145.585 28.105 145.445 27.225 145.165 26.525C144.885 25.825 144.475 25.305 143.935 24.965C143.415 24.605 142.785 24.425 142.045 24.425ZM151.364 36.665V21.665H154.934L155.204 24.605C155.604 23.565 156.184 22.765 156.944 22.205C157.724 21.645 158.694 21.365 159.854 21.365C160.194 21.365 160.504 21.395 160.784 21.455C161.064 21.515 161.294 21.595 161.474 21.695L160.994 25.145C160.794 25.065 160.544 25.005 160.244 24.965C159.964 24.925 159.594 24.905 159.134 24.905C158.534 24.905 157.954 25.055 157.394 25.355C156.834 25.635 156.374 26.075 156.014 26.675C155.654 27.255 155.474 27.995 155.474 28.895V36.665H151.364ZM164.29 19.505C163.43 19.505 162.79 19.325 162.37 18.965C161.95 18.585 161.74 18.035 161.74 17.315C161.74 16.575 161.95 16.025 162.37 15.665C162.79 15.285 163.43 15.095 164.29 15.095C165.15 15.095 165.79 15.285 166.21 15.665C166.63 16.025 166.84 16.575 166.84 17.315C166.84 18.035 166.63 18.585 166.21 18.965C165.79 19.325 165.15 19.505 164.29 19.505ZM166.33 21.665V36.665H162.22V21.665H166.33ZM168.017 36.665V34.025L174.677 26.345L176.387 24.635L173.897 24.695H168.077V21.665H180.947V24.305L174.317 31.955L172.607 33.695L175.337 33.635H181.187V36.665H168.017ZM189.603 36.965C188.023 36.965 186.643 36.655 185.463 36.035C184.303 35.415 183.403 34.525 182.763 33.365C182.123 32.205 181.803 30.805 181.803 29.165C181.803 27.525 182.123 26.125 182.763 24.965C183.403 23.805 184.293 22.915 185.433 22.295C186.593 21.675 187.913 21.365 189.393 21.365C190.913 21.365 192.203 21.675 193.263 22.295C194.323 22.895 195.133 23.725 195.693 24.785C196.253 25.825 196.533 27.015 196.533 28.355C196.533 28.755 196.523 29.135 196.503 29.495C196.483 29.855 196.453 30.175 196.413 30.455H184.443V27.605H194.613L192.633 28.325C192.633 27.065 192.343 26.095 191.763 25.415C191.203 24.735 190.403 24.395 189.363 24.395C188.603 24.395 187.943 24.575 187.383 24.935C186.843 25.295 186.433 25.835 186.153 26.555C185.873 27.255 185.733 28.145 185.733 29.225C185.733 30.285 185.883 31.165 186.183 31.865C186.503 32.545 186.943 33.055 187.503 33.395C188.083 33.735 188.773 33.905 189.573 33.905C190.453 33.905 191.163 33.735 191.703 33.395C192.243 33.055 192.663 32.585 192.963 31.985L196.233 33.245C195.913 34.025 195.423 34.695 194.763 35.255C194.123 35.815 193.353 36.245 192.453 36.545C191.573 36.825 190.623 36.965 189.603 36.965ZM203.886 36.965C202.646 36.965 201.536 36.655 200.556 36.035C199.596 35.415 198.836 34.525 198.276 33.365C197.736 32.205 197.466 30.815 197.466 29.195C197.466 27.535 197.756 26.125 198.336 24.965C198.916 23.785 199.696 22.895 200.676 22.295C201.676 21.675 202.796 21.365 204.036 21.365C205.356 21.365 206.446 21.745 207.306 22.505C208.166 23.265 208.726 24.245 208.986 25.445L208.596 25.925V15.095H212.706V36.665H209.016L208.746 32.105L209.256 32.345C209.116 33.285 208.796 34.105 208.296 34.805C207.796 35.485 207.166 36.015 206.406 36.395C205.646 36.775 204.806 36.965 203.886 36.965ZM205.086 33.815C205.806 33.815 206.426 33.635 206.946 33.275C207.466 32.895 207.866 32.345 208.146 31.625C208.446 30.905 208.596 30.045 208.596 29.045C208.596 28.085 208.456 27.275 208.176 26.615C207.896 25.935 207.496 25.415 206.976 25.055C206.456 24.695 205.846 24.515 205.146 24.515C204.026 24.515 203.146 24.915 202.506 25.715C201.886 26.495 201.576 27.645 201.576 29.165C201.576 30.685 201.886 31.845 202.506 32.645C203.126 33.425 203.986 33.815 205.086 33.815ZM223.015 36.665V16.865H231.685C234.085 16.865 235.855 17.335 236.995 18.275C238.135 19.215 238.705 20.545 238.705 22.265C238.705 23.325 238.385 24.265 237.745 25.085C237.105 25.905 236.165 26.425 234.925 26.645V26.675C236.305 26.875 237.365 27.395 238.105 28.235C238.845 29.075 239.215 30.075 239.215 31.235C239.215 32.935 238.595 34.265 237.355 35.225C236.135 36.185 234.345 36.665 231.985 36.665H223.015ZM227.035 33.545H231.625C232.745 33.545 233.575 33.315 234.115 32.855C234.655 32.395 234.925 31.755 234.925 30.935C234.925 30.095 234.655 29.455 234.115 29.015C233.575 28.575 232.745 28.355 231.625 28.355H227.035V33.545ZM227.035 25.175H231.145C233.325 25.175 234.415 24.325 234.415 22.625C234.415 20.925 233.325 20.075 231.145 20.075H227.035V25.175ZM243.021 19.505C242.161 19.505 241.521 19.325 241.101 18.965C240.681 18.585 240.471 18.035 240.471 17.315C240.471 16.575 240.681 16.025 241.101 15.665C241.521 15.285 242.161 15.095 243.021 15.095C243.881 15.095 244.521 15.285 244.941 15.665C245.361 16.025 245.571 16.575 245.571 17.315C245.571 18.035 245.361 18.585 244.941 18.965C244.521 19.325 243.881 19.505 243.021 19.505ZM245.061 21.665V36.665H240.951V21.665H245.061ZM251.668 15.095V32.045C251.668 32.745 251.788 33.235 252.028 33.515C252.268 33.795 252.668 33.935 253.228 33.935C253.568 33.935 253.848 33.915 254.068 33.875C254.288 33.815 254.568 33.735 254.908 33.635L254.548 36.335C254.208 36.535 253.778 36.685 253.258 36.785C252.758 36.905 252.258 36.965 251.758 36.965C250.298 36.965 249.228 36.615 248.548 35.915C247.888 35.195 247.558 34.055 247.558 32.495V15.095H251.668ZM259.448 15.095V32.045C259.448 32.745 259.568 33.235 259.808 33.515C260.048 33.795 260.448 33.935 261.008 33.935C261.348 33.935 261.628 33.915 261.848 33.875C262.068 33.815 262.348 33.735 262.688 33.635L262.328 36.335C261.988 36.535 261.558 36.685 261.038 36.785C260.538 36.905 260.038 36.965 259.538 36.965C258.078 36.965 257.008 36.615 256.328 35.915C255.668 35.195 255.338 34.055 255.338 32.495V15.095H259.448ZM265.248 19.505C264.388 19.505 263.748 19.325 263.328 18.965C262.908 18.585 262.698 18.035 262.698 17.315C262.698 16.575 262.908 16.025 263.328 15.665C263.748 15.285 264.388 15.095 265.248 15.095C266.108 15.095 266.748 15.285 267.168 15.665C267.588 16.025 267.798 16.575 267.798 17.315C267.798 18.035 267.588 18.585 267.168 18.965C266.748 19.325 266.108 19.505 265.248 19.505ZM267.288 21.665V36.665H263.178V21.665H267.288ZM269.845 36.665V21.665H273.535L273.775 26.165L273.265 25.685C273.505 24.705 273.885 23.895 274.405 23.255C274.925 22.615 275.555 22.145 276.295 21.845C277.055 21.525 277.885 21.365 278.785 21.365C279.825 21.365 280.745 21.565 281.545 21.965C282.365 22.365 283.005 22.975 283.465 23.795C283.945 24.595 284.185 25.605 284.185 26.825V36.665H280.075V27.995C280.075 26.715 279.825 25.835 279.325 25.355C278.825 24.855 278.175 24.605 277.375 24.605C276.815 24.605 276.265 24.745 275.725 25.025C275.205 25.285 274.775 25.715 274.435 26.315C274.115 26.915 273.955 27.715 273.955 28.715V36.665H269.845ZM300.449 18.095L300.929 21.035C300.849 21.035 300.759 21.035 300.659 21.035C300.579 21.015 300.489 21.005 300.389 21.005C299.469 21.005 298.779 21.215 298.319 21.635C297.859 22.035 297.629 22.595 297.629 23.315L295.949 22.625C295.949 21.825 296.109 21.085 296.429 20.405C296.749 19.705 297.219 19.145 297.839 18.725C298.479 18.305 299.239 18.095 300.119 18.095C300.159 18.095 300.209 18.095 300.269 18.095C300.329 18.095 300.389 18.095 300.449 18.095ZM295.529 33.845C297.149 33.845 298.399 34.195 299.279 34.895C300.159 35.595 300.599 36.575 300.599 37.835C300.599 38.975 300.269 39.935 299.609 40.715C298.949 41.515 298.019 42.115 296.819 42.515C295.639 42.915 294.269 43.115 292.709 43.115C290.129 43.115 288.239 42.755 287.039 42.035C285.859 41.315 285.269 40.375 285.269 39.215C285.269 38.395 285.579 37.705 286.199 37.145C286.839 36.585 287.889 36.275 289.349 36.215L289.199 36.695C288.159 36.515 287.359 36.175 286.799 35.675C286.259 35.155 285.989 34.445 285.989 33.545C285.989 32.625 286.339 31.875 287.039 31.295C287.759 30.695 288.729 30.345 289.949 30.245L291.749 31.085H291.329C290.469 31.145 289.859 31.325 289.499 31.625C289.159 31.905 288.989 32.225 288.989 32.585C288.989 33.005 289.149 33.325 289.469 33.545C289.809 33.745 290.289 33.845 290.909 33.845H295.529ZM292.739 40.295C293.779 40.295 294.629 40.205 295.289 40.025C295.969 39.845 296.469 39.615 296.789 39.335C297.129 39.055 297.299 38.745 297.299 38.405C297.299 38.025 297.149 37.715 296.849 37.475C296.549 37.255 296.009 37.145 295.229 37.145H290.159C289.679 37.145 289.279 37.265 288.959 37.505C288.659 37.745 288.509 38.075 288.509 38.495C288.509 39.055 288.879 39.495 289.619 39.815C290.379 40.135 291.419 40.295 292.739 40.295ZM292.769 21.365C294.169 21.365 295.379 21.575 296.399 21.995C297.439 22.395 298.229 22.975 298.769 23.735C299.329 24.495 299.609 25.405 299.609 26.465C299.609 27.505 299.329 28.405 298.769 29.165C298.229 29.925 297.439 30.515 296.399 30.935C295.379 31.335 294.169 31.535 292.769 31.535C290.549 31.535 288.849 31.085 287.669 30.185C286.509 29.265 285.929 28.025 285.929 26.465C285.929 25.405 286.199 24.495 286.739 23.735C287.299 22.975 288.089 22.395 289.109 21.995C290.129 21.575 291.349 21.365 292.769 21.365ZM292.769 23.945C291.969 23.945 291.309 24.165 290.789 24.605C290.269 25.045 290.009 25.655 290.009 26.435C290.009 27.215 290.269 27.835 290.789 28.295C291.309 28.735 291.969 28.955 292.769 28.955C293.569 28.955 294.219 28.735 294.719 28.295C295.239 27.835 295.499 27.215 295.499 26.435C295.499 25.655 295.239 25.045 294.719 24.605C294.219 24.165 293.569 23.945 292.769 23.945Z" fill="black"/>
</svg>
