<svg width="73" height="100" viewBox="0 0 73 100" fill="none" xmlns="http://www.w3.org/2000/svg">
<path d="M40.991 58.3772C39.6211 57.6396 38.6727 56.1644 38.6727 54.373C38.6727 51.844 40.6749 49.8419 43.2039 49.8419C45.7329 49.8419 47.735 51.844 47.735 54.373C47.735 54.8999 47.6296 55.5321 47.4189 56.059C49.1049 55.6375 50.8963 55.5321 52.5823 55.5321C53.9521 55.5321 55.2167 55.6375 56.5865 55.8483V5.6902C56.5865 2.52898 54.0575 0 50.8963 0H5.69027C2.52901 0 0 2.52898 0 5.6902V75.9747C0 79.1359 2.52901 81.7703 5.69027 81.7703H27.7137C27.6083 81.3488 27.6083 80.8219 27.6083 80.4004C27.6083 77.5553 28.1352 74.7102 28.9782 72.1812C28.7675 72.1812 28.5567 72.1812 28.2406 72.1812C25.7116 72.1812 23.7094 70.1791 23.7094 67.6502C23.7094 65.1212 25.8169 63.1191 28.2406 63.1191C30.032 63.1191 31.6126 64.1728 32.3502 65.7534C34.5631 62.6976 37.5136 60.1686 40.991 58.3772ZM43.0985 45.5216C40.5695 45.5216 38.5674 43.5195 38.5674 40.9905C38.5674 38.4615 40.5695 36.4594 43.0985 36.4594C45.6275 36.4594 47.6296 38.4615 47.6296 40.9905C47.6296 43.5195 45.6275 45.5216 43.0985 45.5216ZM13.3827 72.1812C10.8537 72.1812 8.85152 70.1791 8.85152 67.6502C8.85152 65.1212 10.8537 63.1191 13.3827 63.1191C15.9117 63.1191 17.9138 65.1212 17.9138 67.6502C17.9138 70.1791 15.9117 72.1812 13.3827 72.1812ZM13.3827 58.9041C10.8537 58.9041 8.85152 56.902 8.85152 54.373C8.85152 51.844 10.8537 49.8419 13.3827 49.8419C15.9117 49.8419 17.9138 51.844 17.9138 54.373C17.9138 56.902 15.9117 58.9041 13.3827 58.9041ZM13.3827 45.5216C10.8537 45.5216 8.85152 43.5195 8.85152 40.9905C8.85152 38.4615 10.8537 36.4594 13.3827 36.4594C15.9117 36.4594 17.9138 38.4615 17.9138 40.9905C17.9138 43.5195 15.9117 45.5216 13.3827 45.5216ZM10.8537 29.5047C9.69453 29.5047 8.85152 28.5564 8.85152 27.5026V11.4858C8.85152 10.432 9.69453 9.48367 10.8537 9.48367H45.6275C46.6813 9.48367 47.6296 10.432 47.6296 11.4858V27.608C47.6296 28.7671 46.6813 29.6101 45.6275 29.6101H10.8537V29.5047ZM28.2406 58.9041C25.7116 58.9041 23.7094 56.902 23.7094 54.373C23.7094 51.844 25.8169 49.8419 28.2406 49.8419C30.7696 49.8419 32.7717 51.844 32.7717 54.373C32.7717 56.902 30.7696 58.9041 28.2406 58.9041ZM28.2406 45.5216C25.7116 45.5216 23.7094 43.5195 23.7094 40.9905C23.7094 38.4615 25.8169 36.4594 28.2406 36.4594C30.7696 36.4594 32.7717 38.4615 32.7717 40.9905C32.7717 43.5195 30.7696 45.5216 28.2406 45.5216Z" fill="black"/>
<path d="M52.5821 60.5903C41.6231 60.5903 32.877 69.4418 32.877 80.2953C32.877 91.1488 41.7285 100 52.5821 100C63.4358 100 72.2873 91.1488 72.2873 80.2953C72.2873 69.4418 63.4358 60.5903 52.5821 60.5903ZM54.4789 90.0951H54.2681V92.5187C54.2681 92.8348 54.0574 93.0456 53.7413 93.0456H51.3176C51.0015 93.0456 50.7908 92.8348 50.7908 92.5187V90.0951H50.4746C48.1564 89.779 46.365 87.9876 46.1542 85.6694C46.1542 85.564 46.1542 85.4586 46.2596 85.3532C46.365 85.2479 46.4704 85.1425 46.6811 85.1425H49.1047C49.3155 85.1425 49.5262 85.2479 49.6316 85.564C49.8424 86.3016 50.4746 86.8285 51.2123 86.8285H53.3198C54.5843 86.8285 55.7434 85.8801 55.8488 84.721C55.9541 84.0888 55.7434 83.3511 55.2165 82.9296C54.795 82.4028 54.1628 82.192 53.4251 82.192H51.8445C48.7886 82.192 46.1542 79.8738 45.8381 77.0287C45.522 73.9728 47.5241 71.3385 50.4746 70.8116L50.7908 70.7062V68.2826C50.7908 67.9665 51.0015 67.7558 51.3176 67.7558H53.7413C54.0574 67.7558 54.2681 67.9665 54.2681 68.2826V70.7062H54.5843C56.9025 71.0224 58.6939 72.8137 58.9046 75.132C58.9046 75.2373 58.9046 75.4481 58.7993 75.4481C58.6939 75.5534 58.5885 75.6588 58.3778 75.6588H55.9541C55.7434 75.6588 55.5326 75.5535 55.4273 75.2373C55.2165 74.4997 54.5843 73.9728 53.8466 73.9728H51.7391C50.4746 73.9728 49.3155 74.9212 49.2101 76.0803C49.1047 76.7126 49.3155 77.4502 49.8424 77.8717C50.2639 78.3986 50.8961 78.6093 51.6337 78.6093H53.4251C55.0058 78.6093 56.5864 79.3469 57.7455 80.506C58.9046 81.7705 59.3262 83.3511 59.2208 84.9317C59.01 87.4607 57.1133 89.4628 54.4789 90.0951Z" fill="black"/>
</svg>
