<svg width="106" height="100" viewBox="0 0 106 100" fill="none" xmlns="http://www.w3.org/2000/svg">
<path fill-rule="evenodd" clip-rule="evenodd" d="M48.2596 26.8344H41.2596V52.6402H48.2596V26.8344ZM39.5735 23.4412H49.9548C50.406 23.4412 50.8344 23.6196 51.1534 23.9397C51.4678 24.2552 51.6501 24.6897 51.6501 25.1378V54.3363C51.6501 55.2784 50.889 56.0374 49.9548 56.0374H39.5734C38.6346 56.0374 37.8782 55.2783 37.8782 54.3363V25.1331C37.8782 24.1956 38.6347 23.4365 39.5734 23.4365L39.5735 23.4412ZM58.135 34.6498H68.5164C69.4506 34.6498 70.2071 35.4089 70.2071 36.3464V54.3366C70.2071 55.274 69.4506 56.0377 68.5164 56.0377H58.135C57.1962 56.0377 56.4397 55.274 56.4397 54.3366V36.3417C56.4397 35.4042 57.1962 34.6451 58.135 34.6451V34.6498ZM66.8257 38.0429H59.8257L59.8212 52.6404H66.8211V38.0429H66.8257ZM29.6979 42.305H22.698V52.6401H29.6979V42.305ZM21.0118 38.9118H31.3932V38.9073C31.8398 38.9073 32.2727 39.0902 32.5917 39.4057C32.9061 39.7258 33.0839 40.1603 33.0839 40.6084V54.3372C33.0839 55.2793 32.3274 56.0384 31.3932 56.0384H21.0072C20.073 56.0384 19.3165 55.2792 19.3165 54.3372V40.6049C19.3165 39.6674 20.073 38.9037 21.0072 38.9037L21.0118 38.9118ZM16.7599 77.3484C15.8621 77.3027 15.1557 76.5527 15.1557 75.6518C15.1557 74.7463 15.8621 74.0009 16.7599 73.9552H60.6508C61.5486 74.0009 62.2549 74.7464 62.2549 75.6518C62.2549 76.5527 61.5486 77.3027 60.6508 77.3484H16.7599ZM16.7599 89.3434C15.8621 89.2977 15.1557 88.5523 15.1557 87.6468C15.1557 86.7459 15.8621 85.9959 16.7599 85.9502H60.8106C61.7084 85.996 62.4148 86.746 62.4148 87.6468C62.4148 88.5523 61.7084 89.2978 60.8106 89.3434H16.7599ZM16.7599 65.344C16.2951 65.3714 15.8439 65.2022 15.5067 64.8821C15.1694 64.562 14.978 64.1138 14.978 63.6474C14.978 63.1809 15.1694 62.7373 15.5067 62.4172C15.8439 62.0925 16.2951 61.9279 16.7599 61.9507H66.1562C66.6211 61.9279 67.0723 62.0925 67.4095 62.4172C67.7467 62.7373 67.9381 63.1809 67.9381 63.6474C67.9381 64.1138 67.7467 64.562 67.4095 64.8821C67.0722 65.2022 66.6211 65.3714 66.1562 65.344H16.7599ZM105.285 81.2539C105.285 74.6137 101.753 68.4815 96.0245 65.1614C90.2959 61.8412 83.232 61.8414 77.5037 65.1614C71.7755 68.4814 68.2434 74.6139 68.2434 81.2539C68.2388 86.2202 70.1894 90.9899 73.6665 94.5203C77.0981 98.0233 81.792 99.9988 86.6864 99.9942C91.622 99.9668 96.3477 97.9775 99.8346 94.4699C103.316 90.9578 105.276 86.211 105.285 81.2539ZM84.9908 71.056V69.6521C85.0409 68.7512 85.7837 68.0423 86.6815 68.0423C87.5838 68.0423 88.3267 68.7512 88.3768 69.6521V71.0149C90.979 71.7466 92.779 74.1245 92.779 76.8364C92.7335 77.7373 91.9906 78.4462 91.0883 78.4462C90.186 78.4462 89.4431 77.7373 89.3976 76.8364C89.3976 75.3776 88.2173 74.1978 86.7635 74.1978C85.3097 74.1978 84.134 75.3776 84.134 76.8364C84.1385 77.5818 84.4302 78.2952 84.9497 78.8257C85.4191 79.3333 86.0799 79.6214 86.7681 79.6306C89.7804 79.6306 92.3279 81.8621 92.7336 84.8529C93.1437 87.8483 91.2843 90.6836 88.3859 91.4931V93.0159V93.0113C88.4087 93.4778 88.2401 93.9351 87.9211 94.2735C87.602 94.6119 87.1554 94.804 86.6906 94.804C86.2257 94.804 85.7837 94.6119 85.4647 94.2735C85.1456 93.9351 84.977 93.4778 84.9998 93.0113V91.4474C82.475 90.6654 80.757 88.324 80.7525 85.6716C80.798 84.7707 81.5454 84.0619 82.4432 84.0619C83.3455 84.0619 84.0884 84.7707 84.1339 85.6716C84.1385 86.7417 84.7765 87.7021 85.7608 88.1136C86.7452 88.5206 87.8754 88.2965 88.6273 87.5374C89.3838 86.7828 89.6071 85.6487 89.2015 84.661C88.7914 83.6732 87.8343 83.033 86.768 83.033C85.1593 83.0193 83.6189 82.3516 82.5115 81.1809C81.3905 80.0148 80.757 78.4554 80.7479 76.832C80.7479 74.1842 82.4706 71.8428 84.9953 71.0562L84.9908 71.056ZM84.9908 26.835V59.3407C79.5039 59.7889 74.3906 62.2903 70.6584 66.3513C66.926 70.4122 64.8569 75.7306 64.8569 81.2543C64.8524 88.8456 68.7078 95.9115 75.0788 99.9996H3.78549C2.85125 100.013 1.95348 99.6475 1.29269 98.989C0.631878 98.3259 0.271859 97.4205 0.285532 96.4875V3.5079C0.276418 2.575 0.636439 1.67867 1.28814 1.01102C1.94894 0.352497 2.85123 -0.0133482 3.78549 0.000372498H58.2498V19.9258C58.2361 21.7641 58.9562 23.5293 60.2504 24.8235C61.5447 26.1223 63.3038 26.8494 65.1312 26.8357L84.9908 26.835ZM61.6343 2.40121V19.9255C61.6206 20.8629 61.9852 21.7638 62.6414 22.4269C63.3022 23.09 64.2045 23.4559 65.1342 23.4376H82.5979L61.6343 2.40121Z" fill="black"/>
</svg>
