<svg width="101" height="100" viewBox="0 0 101 100" fill="none" xmlns="http://www.w3.org/2000/svg">
<path d="M14.5723 21.428H46.9649C47.4515 17.562 48.7059 13.9415 50.5809 10.7139H14.5724L14.5723 21.428Z" fill="black"/>
<path d="M11.0012 21.428V10.7139H3.85848C1.88525 10.7139 0.287109 12.312 0.287109 14.2852V21.428H11.0012Z" fill="black"/>
<path d="M26.1699 74.9986L39.572 87.0567V80.3514C39.572 79.3648 40.3711 78.5657 41.3577 78.5657L64.571 78.5702V71.4275H41.3577C40.3711 71.4275 39.572 70.6284 39.572 69.6418V62.9365L26.1699 74.9986Z" fill="black"/>
<path d="M43.1432 91.0706C43.1432 91.7759 42.7281 92.4143 42.0807 92.7045C41.8486 92.8027 41.6031 92.8563 41.3575 92.8563C40.9245 92.8563 40.4959 92.7 40.1611 92.4009L22.3043 76.3304C21.9293 75.9866 21.715 75.5045 21.715 75C21.715 74.4955 21.9293 74.0134 22.3043 73.6696L40.1611 57.599C40.6879 57.1303 41.4379 57.0187 42.0807 57.2954C42.728 57.5811 43.1432 58.2195 43.1432 58.9249V67.8533H64.5714V51.465C54.1163 47.2196 46.7146 36.9647 46.7146 25.0015H14.5723V100H61.0001C62.9733 100 64.5714 98.4021 64.5714 96.4288V82.1434H43.1432L43.1432 91.0706Z" fill="black"/>
<path d="M11.0012 24.9995H0.287109V96.4269C0.287109 98.4001 1.88525 99.9983 3.85848 99.9983H11.0012V24.9995Z" fill="black"/>
<path d="M75.2867 0C61.5018 0 50.2871 11.2141 50.2871 24.9996C50.2871 38.7851 61.5012 49.9992 75.2867 49.9992C89.0722 49.9992 100.286 38.7851 100.286 24.9996C100.286 11.2141 89.0722 0 75.2867 0ZM75.2867 23.2133C80.2107 23.2133 84.2151 27.2177 84.2151 32.1417C84.2151 36.4541 81.1437 40.0613 77.0724 40.8915V42.8559C77.0724 43.8424 76.2733 44.6415 75.2867 44.6415C74.3001 44.6415 73.501 43.8424 73.501 42.8559V40.8915C69.4296 40.0612 66.3583 36.4541 66.3583 32.1417C66.3583 31.1552 67.1574 30.3561 68.144 30.3561C69.1305 30.3561 69.9296 31.1552 69.9296 32.1417C69.9296 35.097 72.3314 37.4988 75.2867 37.4988C78.242 37.4988 80.6437 35.097 80.6437 32.1417C80.6437 29.1865 78.242 26.7847 75.2867 26.7847C70.3627 26.7847 66.3583 22.7803 66.3583 17.8563C66.3583 13.5439 69.4296 9.93675 73.501 9.10648V7.14217C73.501 6.15558 74.3001 5.35648 75.2867 5.35648C76.2733 5.35648 77.0724 6.15558 77.0724 7.14217V9.10648C81.1437 9.93682 84.2151 13.5439 84.2151 17.8563C84.2151 18.8429 83.416 19.642 82.4294 19.642C81.4428 19.642 80.6437 18.8429 80.6437 17.8563C80.6437 14.901 78.242 12.4992 75.2867 12.4992C72.3314 12.4992 69.9296 14.901 69.9296 17.8563C69.9296 20.8115 72.3314 23.2133 75.2867 23.2133Z" fill="black"/>
</svg>
