<svg width="101" height="100" viewBox="0 0 101 100" fill="none" xmlns="http://www.w3.org/2000/svg">
<path d="M93.7946 59.9995H30.554C27.0389 59.9995 24.1738 62.8646 24.1738 66.3796V93.6197C24.1738 97.1348 27.0389 99.9999 30.554 99.9999H93.7946C97.3097 99.9999 100.175 97.1348 100.175 93.6197V66.3796C100.175 62.8646 97.3097 59.9995 93.7946 59.9995ZM39.8341 87.9999H44.1741C45.2792 87.9999 46.1742 88.895 46.1742 90C46.1742 91.105 45.2792 92 44.1741 92H38.174C37.069 92 36.174 91.105 36.174 90C36.174 88.895 35.279 87.9999 34.174 87.9999C33.069 87.9999 32.174 87.1049 32.174 85.9999V73.9997C32.174 72.8947 33.069 71.9997 34.174 71.9997C35.279 71.9997 36.174 71.1047 36.174 69.9997C36.174 68.8946 37.069 67.9996 38.174 67.9996H44.1741C45.2792 67.9996 46.1742 68.8946 46.1742 69.9997C46.1742 71.1047 45.2792 71.9997 44.1741 71.9997H39.8341C39.2291 73.7047 37.8791 75.0547 36.174 75.6598V84.345C37.879 84.945 39.229 86.2948 39.8341 87.9999ZM60.4399 76.8947L65.705 79.5248C67.23 80.2898 68.18 81.8199 68.18 83.5249C68.18 85.8299 66.42 87.7099 64.1799 87.9499L64.1749 90C64.1749 91.105 63.2799 92 62.1749 92C61.0699 92 60.1749 91.105 60.1749 90V87.9999H58.1749C57.0698 87.9999 56.1748 87.1049 56.1748 85.9999C56.1748 84.8949 57.0698 83.9999 58.1749 83.9999H63.6999C63.9599 83.9999 64.1749 83.7849 64.1749 83.5249C64.1749 83.3449 64.0749 83.1849 63.9099 83.0999L58.6448 80.4698C57.1198 79.7048 56.1698 78.1747 56.1698 76.4698C56.1698 74.1647 57.9298 72.2847 60.1698 72.0447L60.1748 69.9996C60.1748 68.8946 61.0699 67.9996 62.1749 67.9996C63.2799 67.9996 64.1749 68.8946 64.1749 69.9996V71.9997H66.1749C67.28 71.9997 68.175 72.8947 68.175 73.9997C68.175 75.1047 67.28 75.9997 66.1749 75.9997H60.6499C60.3899 75.9997 60.1749 76.2147 60.1749 76.4747C60.1749 76.6497 60.2749 76.8147 60.4399 76.8947ZM92.1754 85.9999C92.1754 87.1049 91.2804 87.9999 90.1754 87.9999C89.0703 87.9999 88.1753 88.895 88.1753 90C88.1753 91.105 87.2803 92 86.1753 92H80.1752C79.0702 92 78.1752 91.105 78.1752 90C78.1752 88.895 79.0702 87.9999 80.1752 87.9999H84.5152C85.1202 86.295 86.4702 84.9449 88.1753 84.3399V75.6547C86.4703 75.0496 85.1203 73.6997 84.5152 71.9946L80.1752 71.9996C79.0702 71.9996 78.1752 71.1046 78.1752 69.9995C78.1752 68.8945 79.0702 67.9995 80.1752 67.9995H86.1753C87.2803 67.9995 88.1753 68.8945 88.1753 69.9995C88.1753 71.1046 89.0703 71.9996 90.1754 71.9996C91.2804 71.9996 92.1754 72.8946 92.1754 73.9996V85.9999Z" fill="black"/>
<path d="M76.1739 39.1597C67.4137 36.6797 60.8738 28.9195 60.2338 19.5396C60.1938 19.6796 60.1738 19.8396 60.1738 19.9996V56.0001H76.1741L76.1739 39.1597Z" fill="black"/>
<path d="M40.1738 56.0008H56.1741V30.0011C56.1741 26.7011 53.474 24.001 50.174 24.001H46.1739C42.8739 24.001 40.1738 26.7011 40.1738 30.0011V56.0008Z" fill="black"/>
<path d="M36.1741 56.0009V42.0001C36.1741 38.7001 33.474 36 30.174 36H26.1739C22.8739 36 20.1738 38.7001 20.1738 42.0001V62.0004C20.1738 62.6604 20.2738 63.2804 20.4938 63.8805C21.5939 59.3605 25.6939 56.0004 30.554 56.0004L36.1741 56.0009Z" fill="black"/>
<path d="M10.174 48.001H6.17392C2.86392 48.001 0.173828 50.6911 0.173828 54.0011V62.0012C0.173828 65.3112 2.86392 68.0013 6.17392 68.0013H10.174C13.484 68.0013 16.1741 65.3112 16.1741 62.0012V54.0011C16.1741 50.6911 13.484 48.001 10.174 48.001Z" fill="black"/>
<path d="M10.1726 40.0005C10.6826 40.0005 11.1976 39.8055 11.5877 39.4154L36.173 14.8301V16.0001C36.173 17.1051 37.068 18.0002 38.1731 18.0002C39.2781 18.0002 40.1731 17.1051 40.1731 16.0001V10C40.1731 8.89502 39.2781 8 38.1731 8H32.173C31.0679 8 30.1729 8.89502 30.1729 10C30.1729 11.105 31.0679 12.0001 32.173 12.0001H33.343C33.343 12.0001 8.80244 36.5406 8.75764 36.5854C7.53262 37.8154 8.43756 40.0005 10.1726 40.0005Z" fill="black"/>
<path d="M82.1761 35.9993C92.1012 35.9993 100.176 27.9241 100.176 17.9996C100.176 8.07513 92.1006 0 82.1761 0C77.701 0 73.2509 1.74006 69.9658 4.77511C66.2858 8.1751 64.1758 12.9953 64.1758 18.0003C64.1758 27.9254 72.2516 35.9993 82.1761 35.9993ZM82.1761 29.9992C81.071 29.9992 80.176 29.1042 80.176 27.9992C80.176 26.8941 81.071 25.9991 82.1761 25.9991C83.2811 25.9991 84.1761 26.8941 84.1761 27.9992C84.1761 29.1042 83.2811 29.9992 82.1761 29.9992ZM82.1761 5.99881C85.4861 5.99881 88.1762 8.6889 88.1762 11.9989C88.1762 14.209 86.9661 16.234 85.016 17.284C84.506 17.559 84.176 18.199 84.176 18.9189V19.999C84.176 21.104 83.281 21.999 82.176 21.999C81.071 21.999 80.176 21.104 80.176 19.999V18.9189C80.176 16.7139 81.306 14.7389 83.121 13.7639C83.771 13.4139 84.1761 12.7389 84.1761 11.9989C84.1761 10.8939 83.281 9.99888 82.176 9.99888C81.071 9.99888 80.176 10.8939 80.176 11.9989C80.176 13.1039 79.281 13.9989 78.176 13.9989C77.0709 13.9989 76.1759 13.1039 76.1759 11.9989C76.1759 8.6889 78.8661 5.99881 82.1761 5.99881Z" fill="black"/>
</svg>
